<svg xmlns="http://www.w3.org/2000/svg" version="1.1" xmlns:xlink="http://www.w3.org/1999/xlink" xmlns:svgjs="http://svgjs.dev/svgjs" viewBox="0 0 800 800" opacity="0.76"><defs><filter id="bbburst-blur-1" x="-100%" y="-100%" width="400%" height="400%"><feGaussianBlur in="SourceGraphic" stdDeviation="1"></feGaussianBlur></filter><filter id="bbburst-blur-2" x="-100%" y="-100%" width="400%" height="400%"><feGaussianBlur in="SourceGraphic" stdDeviation="2"></feGaussianBlur></filter><filter id="bbburst-blur-3" x="-100%" y="-100%" width="400%" height="400%"><feGaussianBlur in="SourceGraphic" stdDeviation="4"></feGaussianBlur></filter><filter id="bbburst-blur-4" x="-100%" y="-100%" width="400%" height="400%"><feGaussianBlur in="SourceGraphic" stdDeviation="12"></feGaussianBlur></filter><symbol id="bbburst-shape-1" viewBox="0 0 194 167"><path d="m97 0 96.129 166.5H.871L97 0Z"></path></symbol><symbol id="bbburst-shape-3" viewBox="0 0 131 127"><path d="m66 0 66 63.5L66 127 0 63.5 66 0Z"></path></symbol><symbol id="bbburst-shape-5" viewBox="0 0 145 145"><circle cx="72.5" cy="72.5" r="72.5"></circle></symbol></defs><use xlink:href="#bbburst-shape-1" width="45.35881768870019" opacity="0.21504337675834184" transform="matrix(1.0036447821635157,-0.7451155287845966,0.7451155287845966,1.0036447821635157,319.3834921401965,-243.5383320259757)" fill="#a855f7" filter="url(#bbburst-blur-3)"></use><use xlink:href="#bbburst-shape-3" width="37.2945104746408" opacity="0.1970305115678821" transform="matrix(1.1750612340765203,0.4262993035070139,-0.4262993035070139,1.1750612340765203,192.59421890887842,-140.78090010423557)" fill="#ef4444" filter="url(#bbburst-blur-3)"></use><use xlink:href="#bbburst-shape-3" width="36.800655065625925" opacity="0.6365224147421275" transform="matrix(0.7382946998671953,-0.6744782695891751,0.6744782695891751,0.7382946998671953,279.70196429230697,105.99986398982259)" fill="#0ea5e9" filter="url(#bbburst-blur-1)"></use><use xlink:href="#bbburst-shape-5" width="38.70772620216116" opacity="0.20027005866668535" transform="matrix(1.221584189896069,-0.26501333361920615,0.26501333361920615,1.221584189896069,303.5143479462608,274.8426627814241)" fill="#a855f7" filter="url(#bbburst-blur-3)"></use><use xlink:href="#bbburst-shape-5" width="24.459582636074913" opacity="0.6586225669549797" transform="matrix(0.9997609387493446,-0.021864705601250346,0.021864705601250346,0.9997609387493446,471.1731710276452,123.27837991462718)" fill="#a855f7" filter="url(#bbburst-blur-1)"></use><use xlink:href="#bbburst-shape-5" width="22.09674478498176" opacity="0.9310169946673833" transform="matrix(0.8173188837746993,-0.576185597030401,0.576185597030401,0.8173188837746993,188.2893753579058,65.61296277723403)" fill="#22c55e"></use><use xlink:href="#bbburst-shape-5" width="27.968402130001824" opacity="0.7265553641037298" transform="matrix(0.9989187027568383,0.046491131225164656,-0.046491131225164656,0.9989187027568383,411.954084939719,122.61414474562082)" fill="#0ea5e9" filter="url(#bbburst-blur-1)"></use><use xlink:href="#bbburst-shape-3" width="39.119246561372925" opacity="0.08419870087967696" transform="matrix(1.2481022824343961,1.2266787242721913,-1.2266787242721913,1.2481022824343961,1216.39370167363,-340.4666422404331)" fill="#a855f7" filter="url(#bbburst-blur-4)"></use><use xlink:href="#bbburst-shape-5" width="31.390007004213402" opacity="0.6361290107259625" transform="matrix(0.991122268894975,-0.132953556178377,0.132953556178377,0.991122268894975,211.61615139028262,-106.14805416800607)" fill="#a855f7" filter="url(#bbburst-blur-1)"></use><use xlink:href="#bbburst-shape-3" width="46.61136787137008" opacity="0.35505657352719733" transform="matrix(0.8484752629355439,-0.5292350405882624,0.5292350405882624,0.8484752629355439,127.80321337763206,360.41212808981516)" fill="#0ea5e9" filter="url(#bbburst-blur-2)"></use><use xlink:href="#bbburst-shape-3" width="55.96725662335359" opacity="-0.05954611198685544" transform="matrix(1.5443388581885937,0.8231145066688781,-0.8231145066688781,1.5443388581885937,1020.2016006125939,98.82339628785985)" fill="#0ea5e9" filter="url(#bbburst-blur-4)"></use><use xlink:href="#bbburst-shape-3" width="57.05445298213522" opacity="0.09617217643292642" transform="matrix(1.688300725414449,-0.4605872996132703,0.4605872996132703,1.688300725414449,-179.05430100591937,-48.756924334267296)" fill="#f97316" filter="url(#bbburst-blur-4)"></use><use xlink:href="#bbburst-shape-3" width="27.274683100999898" opacity="0.7346549091240699" transform="matrix(0.9998659528111147,-0.01637303909241796,0.01637303909241796,0.9998659528111147,448.2239003684904,-97.51520467973006)" fill="#f97316" filter="url(#bbburst-blur-1)"></use><use xlink:href="#bbburst-shape-3" width="51.609843465066305" opacity="0.09954442241924144" transform="matrix(1.6496752960488343,-0.5840131998561258,0.5840131998561258,1.6496752960488343,-222.52282380217508,-455.53833638034985)" fill="#0ea5e9" filter="url(#bbburst-blur-4)"></use><use xlink:href="#bbburst-shape-3" width="37.80627634629322" opacity="0.4308027013983594" transform="matrix(0.8884969757794725,0.45888247300450635,-0.45888247300450635,0.8884969757794725,444.34164716187615,-189.2010673587292)" fill="#22c55e" filter="url(#bbburst-blur-2)"></use><use xlink:href="#bbburst-shape-3" width="32.37352913895357" opacity="0.3382391158213308" transform="matrix(0.9480746987260494,-0.3180477411262507,0.3180477411262507,0.9480746987260494,-18.51657628143583,-86.27374694278774)" fill="#a855f7" filter="url(#bbburst-blur-2)"></use><use xlink:href="#bbburst-shape-5" width="40.2878287593054" opacity="0.12516713739011787" transform="matrix(1.248227262069213,0.06654849530376988,-0.06654849530376988,1.248227262069213,221.03185390157392,-450.51718348218185)" fill="#a855f7" filter="url(#bbburst-blur-3)"></use><use xlink:href="#bbburst-shape-3" width="30.373038489078148" opacity="0.46400369164883515" transform="matrix(0.9905200328898955,-0.13736835313783227,0.13736835313783227,0.9905200328898955,134.87301881148272,-136.03180222334862)" fill="#ef4444" filter="url(#bbburst-blur-2)"></use><use xlink:href="#bbburst-shape-1" width="33.53868954895614" opacity="0.15792365675991704" transform="matrix(1.2456069035574897,0.10470645543576723,-0.10470645543576723,1.2456069035574897,285.8172391874948,254.0602525138948)" fill="#0ea5e9" filter="url(#bbburst-blur-3)"></use><use xlink:href="#bbburst-shape-3" width="26.740187444828255" opacity="0.5999432519445277" transform="matrix(0.7263534448902113,-0.6873213754104573,0.6873213754104573,0.7263534448902113,62.95377722993908,-53.53306744661958)" fill="#0ea5e9" filter="url(#bbburst-blur-1)"></use><use xlink:href="#bbburst-shape-1" width="42.72548364160096" opacity="0.20609040410668" transform="matrix(1.1552948483481293,-0.47727750143943837,0.47727750143943837,1.1552948483481293,227.48178522236398,-406.5148237023996)" fill="#22c55e" filter="url(#bbburst-blur-3)"></use><use xlink:href="#bbburst-shape-3" width="36.405976902397256" opacity="0.517672670223349" transform="matrix(0.9849907927114568,-0.17260688941538757,0.17260688941538757,0.9849907927114568,399.63357879940526,208.12988646428084)" fill="#f97316" filter="url(#bbburst-blur-2)"></use><use xlink:href="#bbburst-shape-5" width="18.579198749643677" opacity="0.9201093064776477" transform="matrix(0.9933916727692659,-0.11477362272177247,0.11477362272177247,0.9933916727692659,317.93864514183366,-20.114312896058323)" fill="#0ea5e9"></use><use xlink:href="#bbburst-shape-3" width="26.544180943296453" opacity="0.7744377048673003" transform="matrix(0.9960165969321024,-0.08916803595343967,0.08916803595343967,0.9960165969321024,304.2209983370845,-87.28861376245771)" fill="#0ea5e9" filter="url(#bbburst-blur-1)"></use><use xlink:href="#bbburst-shape-3" width="43.81512237763052" opacity="0.4227229014707232" transform="matrix(0.9682845205544779,-0.24985012958688846,0.24985012958688846,0.9682845205544779,19.62805512402106,37.49529638426037)" fill="#f97316" filter="url(#bbburst-blur-2)"></use><use xlink:href="#bbburst-shape-3" width="37.9529126473297" opacity="0.22360658332521" transform="matrix(0.9527359521247819,-0.8091935525749605,0.8091935525749605,0.9527359521247819,299.0878775312365,287.34402377439284)" fill="#0ea5e9" filter="url(#bbburst-blur-3)"></use><use xlink:href="#bbburst-shape-1" width="38.48593288198628" opacity="0.44009680615192515" transform="matrix(0.8882565710730738,-0.459347650419054,0.459347650419054,0.8882565710730738,379.39419847750605,229.67399859894698)" fill="#0ea5e9" filter="url(#bbburst-blur-2)"></use><use xlink:href="#bbburst-shape-1" width="36.706729872706816" opacity="0.10483420528089693" transform="matrix(1.3222544948442256,-1.1463607856448341,1.1463607856448341,1.3222544948442256,109.52255288171511,246.17191189290213)" fill="#a855f7" filter="url(#bbburst-blur-4)"></use><use xlink:href="#bbburst-shape-3" width="34.09810515936813" opacity="0.179379220494284" transform="matrix(0.9972699623042653,-0.7536263147513156,0.7536263147513156,0.9972699623042653,440.4366408028801,-72.40355303779171)" fill="#22c55e" filter="url(#bbburst-blur-3)"></use><use xlink:href="#bbburst-shape-5" width="45.824746131293224" opacity="0.3270667726203812" transform="matrix(1.0398164873462594,-0.6937446739564104,0.6937446739564104,1.0398164873462594,207.66071546355863,282.49762752552095)" fill="#f97316" filter="url(#bbburst-blur-3)"></use><use xlink:href="#bbburst-shape-3" width="50.874813127491116" opacity="-0.057149518012315825" transform="matrix(1.658056411055054,0.5597757924019529,-0.5597757924019529,1.658056411055054,253.48220184429397,67.05853065737426)" fill="#0ea5e9" filter="url(#bbburst-blur-4)"></use><use xlink:href="#bbburst-shape-5" width="22.033488187046633" opacity="0.8512162330039763" transform="matrix(0.968483439736812,0.24907795357187476,-0.24907795357187476,0.968483439736812,554.7686803186282,22.195355155323114)" fill="#0ea5e9"></use><use xlink:href="#bbburst-shape-3" width="28.744980126555916" opacity="0.7270614854991497" transform="matrix(0.9633191102343299,0.2683585136665855,-0.2683585136665855,0.9633191102343299,608.961269425037,52.36915200733472)" fill="#22c55e" filter="url(#bbburst-blur-1)"></use><use xlink:href="#bbburst-shape-1" width="37.964951844167686" opacity="0.5737626684678219" transform="matrix(0.8151389132790656,-0.5792655281114387,0.5792655281114387,0.8151389132790656,322.76777989280345,173.9598361031886)" fill="#f97316" filter="url(#bbburst-blur-1)"></use><use xlink:href="#bbburst-shape-5" width="37.96957533811396" opacity="0.6172215457850079" transform="matrix(0.9684896845778896,0.2490536706539775,-0.2490536706539775,0.9684896845778896,622.1197275307724,-91.2282376298071)" fill="#a855f7" filter="url(#bbburst-blur-1)"></use><use xlink:href="#bbburst-shape-3" width="21.358772652947085" opacity="0.769114980042931" transform="matrix(0.9258980658478259,-0.37777343958946485,0.37777343958946485,0.9258980658478259,176.19821006099866,116.53068118860489)" fill="#ef4444" filter="url(#bbburst-blur-1)"></use><use xlink:href="#bbburst-shape-3" width="56.00931945829751" opacity="-0.06186720365697229" transform="matrix(1.485199829832177,0.925570886246144,-0.925570886246144,1.485199829832177,1062.034198605441,-562.1995928307667)" fill="#f97316" filter="url(#bbburst-blur-4)"></use><use xlink:href="#bbburst-shape-5" width="27.751472644754347" opacity="0.18690403254992527" transform="matrix(1.2457447616274602,0.10305333026031906,-0.10305333026031906,1.2457447616274602,782.7026909106162,-27.866438858741446)" fill="#ef4444" filter="url(#bbburst-blur-3)"></use><use xlink:href="#bbburst-shape-3" width="31.199301203616" opacity="0.6992208477217213" transform="matrix(0.8661198682011747,0.4998363471249163,-0.4998363471249163,0.8661198682011747,456.62825948196286,84.42227786445943)" fill="#ef4444" filter="url(#bbburst-blur-1)"></use><use xlink:href="#bbburst-shape-3" width="49.99727432634816" opacity="0.4219592229561555" transform="matrix(0.9445627479490696,-0.3283309537446971,0.3283309537446971,0.9445627479490696,107.36747697235515,251.24700369450392)" fill="#ef4444" filter="url(#bbburst-blur-2)"></use><use xlink:href="#bbburst-shape-3" width="33.29993812478151" opacity="0.10513556237506327" transform="matrix(1.7452249825443933,0.1291888551807879,-0.1291888551807879,1.7452249825443933,611.8390848517513,-655.6018492020742)" fill="#0ea5e9" filter="url(#bbburst-blur-4)"></use><use xlink:href="#bbburst-shape-3" width="40.00339411701206" opacity="0.20677476465201128" transform="matrix(0.9946697491094918,-0.7570548792567556,0.7570548792567556,0.9946697491094918,-271.88569317005715,92.23360851830773)" fill="#f97316" filter="url(#bbburst-blur-3)"></use><use xlink:href="#bbburst-shape-5" width="47.55172020117497" opacity="0.09265007660881197" transform="matrix(1.405055067405611,-1.0432258899959364,1.0432258899959364,1.405055067405611,299.428145856499,72.84715074165854)" fill="#ef4444" filter="url(#bbburst-blur-4)"></use><use xlink:href="#bbburst-shape-1" width="20.58323507795759" opacity="0.846850208186487" transform="matrix(0.7645172209183977,-0.6446033035279992,0.6446033035279992,0.7645172209183977,148.8983930855931,33.492210156213105)" fill="#a855f7"></use><use xlink:href="#bbburst-shape-1" width="31.58905942372185" opacity="0.7676421221054348" transform="matrix(0.7580824415981205,0.6521587320128682,-0.6521587320128682,0.7580824415981205,550.4533849094587,51.163400783831776)" fill="#0ea5e9" filter="url(#bbburst-blur-1)"></use><use xlink:href="#bbburst-shape-3" width="43.32660871731494" opacity="0.3443058676095466" transform="matrix(0.9476532268406692,0.31930136494927036,-0.31930136494927036,0.9476532268406692,256.43402586977993,169.7287916357119)" fill="#f97316" filter="url(#bbburst-blur-2)"></use><use xlink:href="#bbburst-shape-3" width="29.354863281306603" opacity="0.5505742541391243" transform="matrix(0.9983765808757368,-0.05695790339253622,0.05695790339253622,0.9983765808757368,187.7906963986033,103.44915269584698)" fill="#0ea5e9" filter="url(#bbburst-blur-2)"></use><use xlink:href="#bbburst-shape-1" width="20.20321570727632" opacity="0.7731661920618157" transform="matrix(0.9394019938093531,-0.34281758126883183,0.34281758126883183,0.9394019938093531,348.2029672361873,-10.092789509367151)" fill="#f97316" filter="url(#bbburst-blur-1)"></use><use xlink:href="#bbburst-shape-3" width="32.97652751092164" opacity="0.6830611388421206" transform="matrix(0.8603847208239146,-0.5096451041389043,0.5096451041389043,0.8603847208239146,195.57621714252105,-77.64677166693883)" fill="#f97316" filter="url(#bbburst-blur-1)"></use><use xlink:href="#bbburst-shape-1" width="28.295598097554304" opacity="0.9000598498804349" transform="matrix(0.878413337257246,-0.477901672866488,0.477901672866488,0.878413337257246,194.61501898571848,100.36442038002775)" fill="#0ea5e9"></use><use xlink:href="#bbburst-shape-3" width="45.74265661126702" opacity="0.33691978418945356" transform="matrix(0.9006625603702789,0.43451921976738117,-0.43451921976738117,0.9006625603702789,668.3316059260919,-245.49640855699215)" fill="#f97316" filter="url(#bbburst-blur-2)"></use><use xlink:href="#bbburst-shape-1" width="42.29826742451967" opacity="-0.05098050510127172" transform="matrix(1.7099885038495388,0.37207434297787245,-0.37207434297787245,1.7099885038495388,184.87073297842448,-632.7077031400038)" fill="#f97316" filter="url(#bbburst-blur-4)"></use><use xlink:href="#bbburst-shape-3" width="44.28986285609538" opacity="0.1845355227040193" transform="matrix(1.2499778772040062,-0.007436834041886518,0.007436834041886518,1.2499778772040062,140.51517217606317,187.21605606628282)" fill="#f97316" filter="url(#bbburst-blur-3)"></use><use xlink:href="#bbburst-shape-3" width="31.863165319256762" opacity="0.5437101421827976" transform="matrix(0.9668011541706891,-0.2555298970653401,0.2555298970653401,0.9668011541706891,279.792101310358,222.69712557144015)" fill="#a855f7" filter="url(#bbburst-blur-2)"></use><use xlink:href="#bbburst-shape-3" width="38.34948299031195" opacity="0.3270702463793378" transform="matrix(0.9187028867475823,0.8476349484782107,-0.8476349484782107,0.9187028867475823,995.0832449316027,145.53899127429952)" fill="#f97316" filter="url(#bbburst-blur-3)"></use><use xlink:href="#bbburst-shape-3" width="24.34078142496409" opacity="0.8604208927487134" transform="matrix(0.923859395028502,-0.3827320449316601,0.3827320449316601,0.923859395028502,176.0641534169684,55.23261253885386)" fill="#f97316"></use><use xlink:href="#bbburst-shape-3" width="44.688273538012595" opacity="0.2444811792996472" transform="matrix(1.2495966198974096,0.03175354375449745,-0.03175354375449745,1.2495966198974096,153.3639472854654,-349.82021467929155)" fill="#ef4444" filter="url(#bbburst-blur-3)"></use><use xlink:href="#bbburst-shape-3" width="39.2794627942204" opacity="0.4725277503326786" transform="matrix(0.9934861127487956,-0.11395325258757322,0.11395325258757322,0.9934861127487956,569.1123328439896,42.529987431535176)" fill="#f97316" filter="url(#bbburst-blur-2)"></use><use xlink:href="#bbburst-shape-3" width="37.4201670515199" opacity="0.24976398565712" transform="matrix(1.2023730168892666,-0.34175887443723174,0.34175887443723174,1.2023730168892666,171.77765760868246,-405.01710072020177)" fill="#0ea5e9" filter="url(#bbburst-blur-3)"></use><use xlink:href="#bbburst-shape-3" width="40.577464738158255" opacity="0.44537586379668836" transform="matrix(0.9414764522090933,-0.3370787592474182,0.3370787592474182,0.9414764522090933,419.0118091698577,-149.50570645761135)" fill="#f97316" filter="url(#bbburst-blur-2)"></use><use xlink:href="#bbburst-shape-1" width="33.48198890068902" opacity="0.45285366877449884" transform="matrix(0.9585049515255862,-0.2850758809526572,0.2850758809526572,0.9585049515255862,275.7251530025335,-224.73593616243926)" fill="#a855f7" filter="url(#bbburst-blur-2)"></use><use xlink:href="#bbburst-shape-5" width="38.68334894805476" opacity="0.5846035083321204" transform="matrix(0.9604940116628098,-0.2783006531790436,0.2783006531790436,0.9604940116628098,86.20029654768578,-12.315925460589199)" fill="#f97316" filter="url(#bbburst-blur-1)"></use><use xlink:href="#bbburst-shape-1" width="43.50070026449347" opacity="0.31829400309848843" transform="matrix(1.23500242776618,0.19305181535443197,-0.19305181535443197,1.23500242776618,720.5038934188357,-243.4658265785437)" fill="#a855f7" filter="url(#bbburst-blur-3)"></use><use xlink:href="#bbburst-shape-5" width="37.62667570400228" opacity="0.5591461116066319" transform="matrix(0.8557400641581135,-0.517405974641449,0.517405974641449,0.8557400641581135,259.0030014655416,-113.17664352916304)" fill="#f97316" filter="url(#bbburst-blur-1)"></use><use xlink:href="#bbburst-shape-1" width="31.21814429929731" opacity="0.48312119836563683" transform="matrix(0.7630807855493899,0.6463031136590061,-0.6463031136590061,0.7630807855493899,868.8170167919717,16.057009373950564)" fill="#0ea5e9" filter="url(#bbburst-blur-2)"></use><use xlink:href="#bbburst-shape-3" width="37.69350716378093" opacity="0.6188193246801128" transform="matrix(0.8623086432572541,-0.5063830603049767,0.5063830603049767,0.8623086432572541,98.13612360226762,214.84230943156388)" fill="#0ea5e9" filter="url(#bbburst-blur-1)"></use><use xlink:href="#bbburst-shape-3" width="34.848624324503305" opacity="0.31867595742724686" transform="matrix(0.8848529723520362,-0.8829129160453859,0.8829129160453859,0.8848529723520362,337.61342856638316,48.42315067182483)" fill="#f97316" filter="url(#bbburst-blur-3)"></use><use xlink:href="#bbburst-shape-3" width="22.06811820613074" opacity="0.8083935052500286" transform="matrix(0.9908814469501418,-0.1347366249020408,0.1347366249020408,0.9908814469501418,388.01256026337046,73.21477299098723)" fill="#f97316"></use></svg>